{"title":"Maze Runner The Death Cure (2017) Movie HDRip x264 AC3","magnet":"magnet:?xt=urn:btih:09a83a0a85c9651f6909d530ad6e3e92657e6b02&dn=Maze+Runner+The+Death+Cure+%282017%29+Movie+HDRip+x264+AC3&tr=udp%3A%2F%2Ftracker.leechers-paradise.org%3A6969&tr=udp%3A%2F%2Fzer0day.ch%3A1337&tr=udp%3A%2F%2Fopen.demonii.com%3A1337&tr=udp%3A%2F%2Ftracker.coppersurfer.tk%3A6969&tr=udp%3A%2F%2Fexodus.desync.com%3A6969","uploader":"shmasti","categoryP":"video","categoryS":"movies","size":"1257320187","seeders":"16","leechers":"18","description":"General\r\nComplete name                  : Maze Runner The Death Cure (2017) Movie HDRip x264 AC3 by Full4movies.mp4\r\nFormat                         : MPEG-4\r\nFormat profile                 : Base Media\r\nCodec ID                       : isom (isom/iso2/avc1/mp41)\r\nFile size                      : 1.17 GiB\r\nDuration                       : 2 h 23 min\r\nOverall bit rate               : 1 165 kb/s\r\nMovie name                     : Maze Runner The Death Cure (2017) - www.Full4movies.co\r\nWriting application            : Lavf57.83.100\r\n\r\nVideo\r\nID                             : 1\r\nFormat                         : AVC\r\nFormat/Info                    : Advanced Video Codec\r\nFormat profile                 : <a href=\"/cdn-cgi/l/email-protection\" class=\"__cf_email__\" data-cfemail=\"c880a1afa08884fce6f9\">[email&#xA0;protected]</a>\r\nFormat settings, CABAC         : Yes\r\nFormat settings, RefFrames     : 8 frames\r\nCodec ID                       : avc1\r\nCodec ID/Info                  : Advanced Video Coding\r\nDuration                       : 2 h 23 min\r\nBit rate                       : 1 030 kb/s\r\nWidth                          : 1 280 pixels\r\nHeight                         : 536 pixels\r\nDisplay aspect ratio           : 2.40:1\r\nFrame rate mode                : Variable\r\nFrame rate                     : 23.976 (24000/1001) FPS\r\nMinimum frame rate             : 23.810 FPS\r\nMaximum frame rate             : 24.390 FPS\r\nColor space                    : YUV\r\nChroma subsampling             : 4:2:0\r\nBit depth                      : 8 bits\r\nScan type                      : Progressive\r\nBits/(Pixel*Frame)             : 0.063\r\nStream size                    : 1.03 GiB (88%)\r\nWriting library                : x264 core 148 r2708 86b7198\r\nLanguage                       : English\r\nColor range                    : Limited\r\nColor primaries                : BT.709\r\nTransfer characteristics       : BT.709\r\nMatrix coefficients            : BT.709\r\nMenus                          : 3\r\n\r\nAudio\r\nID                             : 2\r\nFormat                         : AAC\r\nFormat/Info                    : Advanced Audio Codec\r\nFormat profile                 : LC\r\nCodec ID                       : 40\r\nDuration                       : 2 h 23 min\r\nBit rate mode                  : Constant\r\nBit rate                       : 129 kb/s\r\nChannel(s)                     : 2 channels\r\nChannel positions              : Front: L R\r\nSampling rate                  : 48.0 kHz\r\nFrame rate                     : 46.875 FPS (1024 SPF)\r\nCompression mode               : Lossy\r\nStream size                    : 133 MiB (11%)\r\nLanguage                       : English\r\nDefault                        : Yes\r\nAlternate group                : 1\r\nMenus                          : 3","last_updated":"2018-04-10T18:18:12.901Z","parsed":{"xt":"urn:btih:09a83a0a85c9651f6909d530ad6e3e92657e6b02","dn":"Maze Runner The Death Cure (2017) Movie HDRip x264 AC3","tr":["udp://exodus.desync.com:6969","udp://open.demonii.com:1337","udp://tracker.coppersurfer.tk:6969","udp://tracker.leechers-paradise.org:6969","udp://zer0day.ch:1337"],"infoHash":"09a83a0a85c9651f6909d530ad6e3e92657e6b02","infoHashBuffer":{"type":"Buffer","data":[9,168,58,10,133,201,101,31,105,9,213,48,173,110,62,146,101,126,107,2]},"name":"Maze Runner The Death Cure (2017) Movie HDRip x264 AC3","announce":["udp://exodus.desync.com:6969","udp://open.demonii.com:1337","udp://tracker.coppersurfer.tk:6969","udp://tracker.leechers-paradise.org:6969","udp://zer0day.ch:1337"],"urlList":[]}}